# Blender 4.5.3 LTS
# www.blender.org
mtllib Untitled.mtl
o obj1.002
v 0.068324 -18.491499 -27.443516
v 0.181114 -18.423458 -30.828880
v 0.371479 -18.404488 -30.677650
v 0.268304 -18.466728 -27.580864
v -2.183978 2.573421 -30.485657
v -2.296767 2.505378 -27.100296
v -2.096787 2.530147 -27.237637
v -1.993612 2.592391 -30.334431
v 0.882510 -5.670822 -25.463459
v 3.228541 -5.380227 -27.074703
v 3.038176 -5.399199 -27.225933
v 0.892125 -5.665022 -25.752033
v 2.433113 -17.298065 -32.426479
v 0.087082 -17.588665 -30.815239
v 0.277448 -17.569693 -30.664009
v 2.423499 -17.303867 -32.137905
v 2.549555 -20.675877 -25.058544
v -0.112461 -20.941156 -27.173294
v 0.537949 -20.860588 -27.619991
v 2.580824 -20.657009 -25.997097
v 2.755523 -1.180851 -27.006058
v 0.409492 -1.471446 -25.394814
v 0.419107 -1.465647 -25.683388
v 2.565157 -1.199823 -27.157288
v -0.025707 -17.656706 -27.429871
v 0.174272 -17.631935 -27.567215
v -12.742320 4.867593 -25.474636
v -2.977706 5.962956 -25.197853
v -2.493256 6.049928 -27.180103
v -12.673436 4.909149 -27.542202
v 5.088668 -20.296907 -30.745403
v 2.799608 -20.525023 -32.563873
v 2.787175 -20.532524 -32.190681
v 4.830050 -20.328941 -30.567787
v 2.818444 -20.513660 -33.129234
v 5.480461 -20.248379 -31.014488
v 0.021984 -20.860046 -31.208641
v 0.641124 -20.798346 -30.716782
v -0.247661 -18.466187 -31.169510
v -0.382106 -18.547291 -27.134163
v 5.346016 -20.329483 -26.979141
v 4.726876 -20.391184 -27.470997
v 2.279910 -18.282009 -25.019413
v 2.311179 -18.263149 -25.957970
v 5.076371 -17.935623 -26.940010
v 5.210815 -17.854515 -30.975353
v 2.548800 -18.119799 -33.090103
v 2.517530 -18.138660 -32.151550
v 4.560406 -17.935081 -30.528656
v 4.457230 -17.997326 -27.431866
v 1.998306 -23.921776 -29.979652
v 1.945343 -23.953728 -28.389965
v 0.749247 -22.736462 -27.650654
v 0.852422 -22.674219 -30.747444
v 5.184358 -22.242523 -27.306087
v 2.779689 -22.540382 -25.654572
v 2.792123 -22.532883 -26.027763
v 4.938174 -22.267057 -27.501659
v 0.394940 -20.822880 -30.912354
v 0.279332 -20.892626 -27.442379
v 4.973059 -20.366650 -27.275421
v 0.490629 -22.768499 -27.473042
v 3.010907 -22.400894 -32.594532
v 5.299966 -22.172783 -30.776070
v 5.041349 -22.204811 -30.598450
v 2.998473 -22.408398 -32.221344
v 2.568391 -20.664509 -25.623909
v 0.606238 -22.698751 -30.943020
v 2.994020 -23.849224 -27.556881
v 3.099946 -23.785320 -30.736252
v 4.148623 -23.680819 -29.903168
v 4.095660 -23.712763 -28.313477
v -7.971689 74.401611 -28.798092
v -6.419174 74.565300 -28.113811
v 1.798847 6.581577 -30.127899
v -0.244029 6.377994 -31.750790
v -2.741455 6.105478 -32.288872
v -12.501375 5.012947 -32.706558
v -12.570260 4.971392 -30.638992
v -2.390080 6.112170 -30.276894
v -17.213848 73.355659 -28.497765
v -9.566072 74.212669 -28.225742
v -12.276968 1.389370 -27.599735
v -12.173794 1.451614 -30.696529
v -12.104909 1.493167 -32.764091
v -2.344988 2.585700 -32.346409
v 12.375495 4.202574 -29.823334
v 12.272320 4.140329 -26.726540
v 2.092139 2.999555 -27.088642
v 2.195314 3.061798 -30.185432
v 1.228604 75.422302 -27.841785
v 1.186737 75.397041 -26.585144
v 11.875852 7.660108 -26.669006
v 11.979027 7.722351 -29.765797
v -2.581238 2.443178 -25.255390
v -12.345852 1.347813 -25.532173
v 0.221323 2.899773 -33.875893
v 2.679765 3.148767 -32.167683
v 0.152439 2.858214 -31.808327
v 14.879161 3.213768 -29.759792
v 14.775986 3.151525 -26.663002
v -17.571619 0.094991 -25.731461
v -21.276213 1.203412 -26.258453
v -20.240629 1.346335 -27.865929
v -17.502733 0.136548 -27.799023
v -22.003866 4.693693 -26.678684
v -17.968086 3.614771 -25.673920
v -17.899200 3.656328 -27.741489
v -20.637098 4.866114 -27.808392
v -14.791529 3.453117 -30.743519
v -14.894705 3.390875 -27.646729
v -14.498237 -0.128904 -27.704262
v -14.395061 -0.066660 -30.801048
v -17.727140 3.760126 -32.905842
v -21.822271 4.803248 -32.129333
v -20.533922 4.928355 -30.905182
v -17.796024 3.718569 -30.838276
v 14.379518 6.671304 -26.605465
v 14.482694 6.733546 -29.702255
v -17.399559 0.198790 -30.895813
v -21.063599 1.331673 -32.639973
v -17.330675 0.240347 -32.963379
v -20.137453 1.408578 -30.962719
v 20.973167 5.937819 -24.755676
v 17.577641 4.033766 -24.481232
v 17.646526 4.075323 -26.548798
v 20.047020 5.860913 -26.432930
v 17.250057 7.595100 -26.491261
v 17.353231 7.657343 -29.588051
v 17.749701 4.137567 -29.645588
v 17.818584 4.179122 -31.713154
v 21.185780 6.066080 -31.137199
v 20.150196 5.923156 -29.529720
v 19.650553 9.380688 -26.375397
v 19.753729 9.442930 -29.472187
v 2.443514 3.006245 -25.076660
v -0.122796 2.692172 -23.547180
v -0.053912 2.733729 -25.614742
v 14.948045 3.255324 -31.827354
v 21.120499 9.615352 -30.601894
v 17.422115 7.698903 -31.655617
v 14.551577 6.775103 -31.769821
v 17.181171 7.553545 -24.423698
v 20.938902 9.505800 -25.151245
v 14.310633 6.629749 -24.537899
v -0.175145 6.419552 -33.818356
v -0.519265 6.211954 -23.489647
v 2.283297 6.668549 -32.110146
v 2.047046 6.526023 -25.019127
v 12.047913 7.763906 -31.833363
v 12.444380 4.244130 -31.890900
v 12.203436 4.098774 -24.658978
v 11.806968 7.618550 -24.601444
v -14.326178 -0.025105 -32.868618
v -14.722644 3.494674 -32.811081
v 14.707100 3.109969 -24.595440
v -14.963590 3.349318 -25.579163
v -14.567122 -0.170461 -25.636696
v 1.695671 6.519333 -27.031105
v -0.450380 6.253509 -25.557209
v -10.535545 96.766151 -27.175461
v -6.461040 74.540047 -26.857170
v -8.055423 74.351097 -26.284817
v -9.607938 74.187401 -26.969101
v -17.255716 73.330406 -27.241131
v 3.141351 -5.336957 -30.322723
v 2.668333 -1.137581 -30.254078
v 4.174577 -13.778976 -27.211990
v 4.287367 -13.710933 -30.597355
v 4.087388 -13.735705 -30.460014
v 3.984212 -13.797948 -27.363220
v 2.044512 -13.939284 -32.082905
v 1.571494 -9.739912 -32.014259
v 3.614369 -9.536329 -30.391365
v 1.168214 -6.159665 -31.955734
v 3.211090 -5.956085 -30.332840
v 1.098475 -5.540535 -31.945618
v 0.625457 -1.341160 -31.876972
v 2.207534 -17.434153 -25.655746
v 2.217148 -17.428356 -25.944324
v 3.107914 -6.018327 -27.236053
v 3.511194 -9.598572 -27.294579
v 1.177828 -6.153864 -32.244312
v 3.411069 -5.931313 -30.470188
v 0.961864 -6.284151 -25.762154
v 1.365143 -9.864398 -25.820679
v 1.838161 -14.063770 -25.889320
v 2.527144 -18.132862 -32.440125
v -1.623769 -1.669229 -27.306286
v -1.150751 -5.868603 -27.374928
v -1.081012 -6.487734 -27.385048
v -0.677733 -10.067979 -27.443573
v -0.204714 -14.267355 -27.512218
v 4.553565 -17.143559 -27.266991
v 4.363199 -17.162529 -27.418221
v -1.520594 -1.606983 -30.403076
v -1.047575 -5.806359 -30.471718
v -0.977837 -6.425491 -30.481838
v -0.574557 -10.005736 -30.540363
v -0.101539 -14.205112 -30.609009
v 3.298280 -5.999354 -27.084824
v 2.113621 -14.552825 -32.092934
v 4.156497 -14.349244 -30.470043
v 4.466374 -17.100288 -30.515015
v 4.053321 -14.411488 -27.373249
v 1.907271 -14.677311 -25.899353
v -0.135605 -14.880893 -27.522243
v -0.032430 -14.818649 -30.619038
v 0.162053 2.864015 -32.096901
v 3.341331 -5.312186 -30.460068
v 4.666355 -17.075516 -30.652355
v 0.952249 -6.289950 -25.473579
v -2.101068 1.837357 -30.497692
v 0.244963 2.127952 -32.108932
v 0.235349 2.122153 -31.820358
v -1.910702 1.856328 -30.346462
v 2.868312 -1.112809 -30.391422
v -1.280992 -6.512503 -27.247704
v -2.213857 1.769315 -27.112328
v -2.013877 1.794084 -27.249672
v 2.054126 -13.933485 -32.371479
v -1.168203 -6.444462 -30.633068
v 0.019384 1.991867 -25.338203
v 0.028998 1.997668 -25.626778
v -1.607005 -0.839840 -30.390533
v 0.539046 -0.574016 -31.864433
v -1.710181 -0.902084 -27.293743
v 0.332695 -0.698502 -25.670849
v 2.478746 -0.432677 -27.144749
v 2.175049 2.263491 -27.100674
v 2.278224 2.325736 -30.197464
v 2.581921 -0.370436 -30.241535
v 2.365415 2.282463 -26.949448
v 1.108090 -5.534735 -32.234192
v 2.478204 2.350504 -30.334808
v 0.635071 -1.335359 -32.165546
v 2.301565 -18.268946 -25.669392
v 4.647596 -17.978352 -27.280636
v 4.760386 -17.910309 -30.666000
v 2.781901 -0.345663 -30.378883
v 2.669112 -0.413706 -26.993519
v 0.548660 -0.568215 -32.153008
v 0.323081 -0.704301 -25.382275
v -1.910160 -0.926853 -27.156395
v -1.823749 -1.693998 -27.168938
v -1.797371 -0.858812 -30.541763
v -1.710960 -1.625956 -30.554306
v -0.222795 -14.837622 -30.770267
v -0.291905 -14.224080 -30.760239
v 2.123235 -14.547028 -32.381512
v -0.335585 -14.905663 -27.384899
v -0.404694 -14.292125 -27.374870
v 1.897656 -14.683112 -25.610779
v 1.828547 -14.069571 -25.600750
v 4.243687 -14.392517 -27.222019
v 4.356477 -14.324475 -30.607384
v -1.237941 -5.825330 -30.622948
v -1.350731 -5.893374 -27.237583
v 2.395294 3.086568 -30.322781
v 2.282505 3.018524 -26.937412
v -0.063526 2.727930 -25.326168
vn 0.1119 0.0162 -0.9936
vn 0.1119 0.0163 -0.9936
vn 0.1120 0.0163 -0.9936
vn -0.1119 -0.0163 0.9936
vn -0.1120 -0.0163 0.9936
vn -0.1119 -0.0162 0.9936
vn -0.1118 -0.0163 0.9936
vn -0.1118 -0.0162 0.9936
vn 0.1118 0.0162 -0.9936
vn -0.3664 0.0309 -0.9299
vn -0.3665 0.0309 -0.9299
vn -0.5642 0.0022 0.8256
vn 0.5642 -0.0022 -0.8256
vn 0.3664 -0.0309 0.9299
vn 0.3665 -0.0309 0.9299
vn -0.0872 0.0229 -0.9959
vn -0.0873 0.0229 -0.9959
vn 0.0872 -0.0229 0.9959
vn -0.3066 -0.0089 0.9518
vn 0.3066 0.0089 -0.9518
vn 0.3809 -0.0328 -0.9240
vn 0.3836 0.0445 -0.9224
vn 0.5654 0.0551 -0.8230
vn 0.5616 -0.0596 -0.8253
vn -0.3909 -0.0677 0.9179
vn -0.3869 0.0566 0.9204
vn -0.5456 0.0835 0.8339
vn -0.5511 -0.0803 0.8306
vn 0.1767 0.0366 0.9836
vn 0.1727 -0.0878 0.9811
vn 0.3468 -0.1123 0.9312
vn 0.3522 0.0515 0.9345
vn -0.1660 0.0640 -0.9840
vn -0.1687 -0.0133 -0.9856
vn -0.3680 -0.0264 -0.9295
vn -0.3641 0.0882 -0.9272
vn 0.1120 0.0162 -0.9936
vn 0.9932 -0.0353 0.1113
vn 0.6149 0.7843 0.0821
vn 0.6149 0.7843 0.0820
vn 0.6149 0.7844 0.0820
vn 0.5612 -0.8262 0.0498
vn 0.5612 -0.8262 0.0497
vn 0.5613 -0.8261 0.0497
vn -0.6150 -0.7843 -0.0821
vn -0.6149 -0.7843 -0.0820
vn -0.6149 -0.7843 -0.0821
vn -0.9932 0.0353 -0.1113
vn -0.5612 0.8262 -0.0497
vn -0.5613 0.8261 -0.0497
vn -0.5612 0.8262 -0.0498
vn -0.5613 0.8261 -0.0498
vn 0.6150 0.7843 0.0821
vn -0.7242 0.0380 -0.6885
vn -0.7242 0.0379 -0.6885
vn 0.8593 -0.0183 -0.5111
vn -0.3830 -0.5731 -0.7245
vn -0.3831 -0.5731 -0.7245
vn -0.3431 0.6259 -0.7003
vn -0.3432 0.6259 -0.7003
vn -0.3431 0.6259 -0.7004
vn -0.3430 0.6259 -0.7004
vn 0.5325 0.5947 -0.6023
vn 0.5325 0.5947 -0.6022
vn 0.5326 0.5947 -0.6022
vn 0.4926 -0.6042 -0.6263
vn 0.4925 -0.6042 -0.6263
vn 0.4925 -0.6043 -0.6263
vn -0.3233 0.1441 -0.9353
vn -0.1909 0.1064 -0.9758
vn 0.1054 -0.1135 0.9879
vn 0.2868 -0.1916 0.9386
vn 0.2977 0.1342 0.9452
vn 0.1114 0.0665 0.9915
vn -0.1963 -0.0541 -0.9791
vn -0.3309 -0.0846 -0.9399
vn 0.4090 0.0851 -0.9086
vn 0.5313 0.1137 -0.8395
vn 0.5237 -0.1150 -0.8441
vn 0.4035 -0.0755 -0.9118
vn 0.3067 0.0090 -0.9518
vn -0.3229 0.0819 0.9429
vn -0.4891 0.1623 0.8570
vn -0.3067 -0.0090 0.9518
vn -0.4999 -0.1636 0.8505
vn -0.3289 -0.0980 0.9393
vn -0.5076 0.8605 -0.0431
vn -0.5636 -0.8224 -0.0769
vn -0.5637 -0.8224 -0.0769
vn 0.5636 0.8225 0.0769
vn 0.5637 0.8224 0.0769
vn 0.5077 -0.8605 0.0431
vn 0.5076 -0.8605 0.0431
vn 0.5075 -0.8606 0.0432
vn 0.0285 0.9994 0.0195
vn 0.0309 0.9993 0.0198
vn 0.0261 0.9995 0.0193
vn 0.0380 0.9991 0.0206
vn 0.0357 0.9992 0.0203
vn 0.0403 0.9990 0.0209
vn 0.0404 0.9990 0.0209
vn -0.0380 -0.9991 -0.0206
vn -0.0356 -0.9992 -0.0203
vn -0.0404 -0.9990 -0.0209
vn -0.0403 -0.9990 -0.0209
vn -0.0285 -0.9994 -0.0195
vn -0.0308 -0.9993 -0.0198
vn -0.0261 -0.9995 -0.0193
vn 0.0334 0.9992 0.0201
vn 0.0332 0.9992 0.0201
vn 0.0333 0.9992 0.0201
vn -0.0333 -0.9992 -0.0201
vn -0.0332 -0.9992 -0.0201
vn -0.0334 -0.9992 -0.0201
vn -0.9774 0.0367 -0.2082
vn 0.9993 -0.0335 0.0133
vn 0.1755 0.9800 0.0936
vn 0.1755 0.9800 0.0937
vn 0.1756 0.9800 0.0937
vn -0.1228 0.9906 0.0602
vn -0.1227 0.9906 0.0603
vn -0.1228 0.9906 0.0601
vn 0.1099 -0.9925 0.0540
vn 0.1099 -0.9925 0.0541
vn 0.1195 -0.9914 0.0529
vn 0.1098 -0.9925 0.0540
vn -0.1884 -0.9819 0.0205
vn -0.1886 -0.9818 0.0206
vn -0.1885 -0.9819 0.0206
vn -0.1885 -0.9819 0.0205
vn -0.3665 0.0310 -0.9299
vn 0.3665 -0.0310 0.9299
vn 0.5643 -0.0022 -0.8256
vn -0.5643 0.0022 0.8256
vn -0.5642 0.0023 0.8256
vn 0.0873 -0.0229 0.9959
vn 0.3067 0.0089 -0.9518
vn 0.4631 0.8804 0.1023
vn 0.2495 0.9656 0.0729
vn 0.5310 0.8423 0.0930
vn 0.0312 0.9987 0.0395
vn -0.1909 0.9813 0.0235
vn 0.0317 0.9989 0.0334
vn 0.0318 0.9989 0.0334
vn 0.9462 -0.0380 0.3213
vn 0.9871 -0.0360 0.1557
vn 0.1000 0.9931 0.0605
vn -0.0411 0.9982 0.0448
vn 0.1846 -0.9822 0.0336
vn -0.0355 -0.9994 -0.0007
vn 0.0337 -0.9992 0.0205
vn -0.4711 -0.8815 -0.0318
vn -0.2560 -0.9666 -0.0158
vn -0.5353 -0.8429 -0.0546
vn -0.5354 -0.8429 -0.0546
vn -0.0348 -0.9994 -0.0067
vn -0.0347 -0.9994 -0.0067
vn 0.4034 -0.9126 0.0662
vn 0.4736 -0.8788 0.0584
vn 0.4736 -0.8788 0.0585
vn -0.4113 0.9115 0.0043
vn -0.4780 0.8781 -0.0201
vn -0.4779 0.8782 -0.0201
vn 0.0311 0.9987 0.0395
vn -0.9941 0.0310 0.1039
vn -0.9941 0.0311 0.1038
vn -0.9972 0.0345 -0.0666
vn -0.1074 -0.9942 0.0046
vn -0.9609 0.0265 0.2756
vn 0.8756 -0.0388 0.4815
s 1
usemtl mat0.002
f 1//1 2//2 3//3
f 3//3 4//1 1//1
f 5//4 6//5 7//4
f 7//4 8//6 5//4
f 9//4 10//5 11//4
f 11//4 12//5 9//4
f 13//4 14//4 15//4
f 15//4 16//4 13//4
f 17//2 18//2 19//2
f 19//2 20//2 17//2
f 21//1 22//2 23//1
f 23//1 24//2 21//1
f 14//4 25//7 26//8
f 26//8 15//4 14//4
f 31//4 32//4 33//4
f 33//4 34//6 31//4
f 35//3 36//2 34//3
f 34//3 33//2 35//3
f 18//2 37//2 38//9
f 38//9 19//2 18//2
f 39//4 40//5 4//4
f 4//4 3//4 39//4
f 36//2 41//2 42//2
f 42//2 34//3 36//2
f 40//5 43//4 44//5
f 44//5 4//4 40//5
f 46//4 47//4 48//4
f 48//4 49//4 46//4
f 45//5 46//4 49//4
f 49//4 50//4 45//5
f 41//2 17//2 20//2
f 20//2 42//2 41//2
f 43//4 45//5 50//4
f 50//4 44//5 43//4
f 47//4 39//4 3//4
f 3//4 48//4 47//4
f 37//2 35//3 33//2
f 33//2 38//9 37//2
f 55//1 56//2 57//2
f 57//2 58//2 55//1
f 59//4 60//5 19//4
f 19//4 38//6 59//4
f 61//5 31//4 34//6
f 34//6 42//4 61//5
f 56//2 62//2 53//2
f 53//2 57//2 56//2
f 63//3 64//2 65//3
f 65//3 66//2 63//3
f 68//2 63//3 66//2
f 66//2 54//3 68//2
f 60//5 67//4 20//5
f 20//5 19//4 60//5
f 64//2 55//1 58//2
f 58//2 65//3 64//2
f 67//4 61//5 42//4
f 42//4 20//5 67//4
f 62//2 68//2 54//3
f 54//3 53//2 62//2
f 32//4 59//4 38//6
f 38//6 33//4 32//4
f 83//2 84//2 8//9
f 8//9 7//2 83//2
f 87//2 88//2 89//2
f 89//2 90//3 87//2
f 100//10 101//11 88//11
f 88//11 87//11 100//10
f 110//12 111//12 30//12
f 30//12 79//12 110//12
f 112//13 113//13 84//13
f 84//13 83//13 112//13
f 118//14 119//15 94//14
f 94//14 93//15 118//14
f 105//16 120//16 113//17
f 113//17 112//16 105//16
f 117//18 108//18 111//18
f 111//18 110//18 117//18
f 128//19 129//19 119//19
f 119//19 118//19 128//19
f 130//20 126//20 101//20
f 101//20 100//20 130//20
f 133//21 127//22 126//23
f 126//23 130//24 133//21
f 134//25 135//26 129//27
f 129//27 128//28 134//25
f 116//29 109//30 108//31
f 108//31 117//32 116//29
f 104//33 123//34 120//35
f 120//35 105//36 104//33
f 168//5 169//4 170//4
f 170//4 171//4 168//5
f 25//7 179//4 180//5
f 180//5 26//8 25//7
f 183//3 184//2 176//3
f 176//3 175//2 183//3
f 2//2 188//37 48//1
f 48//1 3//3 2//2
f 179//4 194//5 195//4
f 195//4 180//5 179//4
f 184//2 201//2 181//2
f 181//2 176//3 184//2
f 209//4 5//4 8//6
f 8//6 99//4 209//4
f 10//5 210//4 166//4
f 166//4 11//4 10//5
f 194//5 211//4 204//4
f 204//4 195//4 194//5
f 201//2 212//2 185//1
f 185//1 181//2 201//2
f 213//9 214//3 215//1
f 215//1 216//9 213//9
f 217//2 21//1 24//2
f 24//2 167//3 217//2
f 211//4 13//4 16//4
f 16//4 204//4 211//4
f 212//2 218//2 191//2
f 191//2 185//1 212//2
f 219//2 213//9 216//9
f 216//9 220//2 219//2
f 169//4 221//4 172//4
f 172//4 170//4 169//4
f 218//2 222//2 198//9
f 198//9 191//2 218//2
f 223//2 219//2 220//2
f 220//2 224//2 223//2
f 222//2 183//3 175//2
f 175//2 198//9 222//2
f 233//1 223//2 224//2
f 224//2 230//2 233//1
f 210//4 234//4 177//4
f 177//4 166//4 210//4
f 214//3 235//2 231//3
f 231//3 215//1 214//3
f 236//37 217//2 167//3
f 167//3 178//2 236//37
f 235//2 233//1 230//2
f 230//2 231//3 235//2
f 217//38 240//38 241//38
f 241//38 21//38 217//38
f 236//39 242//40 240//39
f 240//39 217//41 236//39
f 21//42 241//43 243//42
f 243//42 22//44 21//42
f 22//45 243//46 244//45
f 244//45 245//47 22//45
f 245//48 244//48 246//48
f 246//48 247//48 245//48
f 247//49 246//50 242//51
f 242//51 236//50 247//49
f 248//49 249//50 221//51
f 221//51 250//50 248//49
f 251//48 252//48 249//48
f 249//48 248//48 251//48
f 253//46 254//46 252//45
f 252//45 251//47 253//46
f 255//42 168//43 254//42
f 254//42 253//44 255//42
f 256//38 169//38 168//38
f 168//38 255//38 256//38
f 250//39 221//40 169//39
f 169//39 256//41 250//39
f 222//52 257//50 234//51
f 234//51 183//50 222//52
f 218//48 258//48 257//48
f 257//48 222//48 218//48
f 212//46 9//46 258//45
f 258//45 218//47 212//46
f 201//42 10//43 9//42
f 9//42 212//44 201//42
f 184//38 210//38 10//38
f 10//38 201//38 184//38
f 183//39 234//40 210//39
f 210//39 184//41 183//39
f 235//38 259//38 260//38
f 260//38 233//38 235//38
f 214//39 209//40 259//39
f 259//39 235//41 214//39
f 233//42 260//43 261//42
f 261//42 223//44 233//42
f 223//46 261//46 6//45
f 6//45 219//47 223//46
f 219//48 6//48 5//48
f 5//48 213//48 219//48
f 213//49 5//50 209//51
f 209//51 214//50 213//49
f 254//4 168//5 171//4
f 171//4 187//5 254//4
f 22//2 245//1 189//2
f 189//2 23//1 22//2
f 6//5 261//4 138//5
f 138//5 7//4 6//5
f 258//5 9//4 12//5
f 12//5 190//5 258//5
f 237//1 1//1 4//1
f 4//1 44//2 237//1
f 242//4 246//4 225//6
f 225//6 226//6 242//4
f 246//4 244//5 227//5
f 227//5 225//6 246//4
f 252//8 254//4 187//5
f 187//5 193//5 252//8
f 261//4 260//8 89//4
f 89//4 138//5 261//4
f 244//5 243//4 228//5
f 228//5 227//5 244//5
f 248//1 250//37 202//1
f 202//1 208//9 248//1
f 245//1 247//2 196//3
f 196//3 189//2 245//1
f 238//2 237//1 44//2
f 44//2 50//2 238//2
f 243//4 241//8 229//4
f 229//4 228//5 243//4
f 251//2 248//1 208//9
f 208//9 207//2 251//2
f 257//6 258//5 190//5
f 190//5 197//6 257//6
f 240//4 242//4 226//6
f 226//6 232//4 240//4
f 253//2 251//2 207//2
f 207//2 206//2 253//2
f 260//8 259//6 90//6
f 90//6 89//4 260//8
f 241//8 240//4 232//4
f 232//4 229//4 241//8
f 255//2 253//2 206//2
f 206//2 205//2 255//2
f 249//4 252//8 193//5
f 193//5 200//6 249//4
f 239//2 238//2 50//2
f 50//2 49//3 239//2
f 256//37 255//2 205//2
f 205//2 203//3 256//37
f 247//2 236//37 178//2
f 178//2 196//3 247//2
f 250//37 256//37 203//3
f 203//3 202//1 250//37
f 234//4 257//6 197//6
f 197//6 177//4 234//4
f 259//6 209//4 99//4
f 99//4 90//6 259//6
f 188//37 239//2 49//3
f 49//3 48//1 188//37
f 221//4 249//4 200//6
f 200//6 172//4 221//4
usemtl mat1.001
f 166//38 167//38 24//38
f 24//38 11//38 166//38
f 172//39 173//39 174//39
f 174//39 170//41 172//39
f 173//39 175//40 176//39
f 176//39 174//39 173//39
f 177//53 178//40 167//39
f 167//39 166//41 177//53
f 174//38 176//38 181//38
f 181//38 182//38 174//38
f 170//38 174//38 182//38
f 182//38 171//38 170//38
f 11//42 24//43 23//42
f 23//42 12//44 11//42
f 182//42 181//43 185//42
f 185//42 186//42 182//42
f 171//42 182//42 186//42
f 186//42 187//44 171//42
f 12//45 23//46 189//47
f 189//47 190//47 12//45
f 186//45 185//46 191//47
f 191//47 192//45 186//45
f 187//45 186//45 192//45
f 192//45 193//47 187//45
f 190//48 189//48 196//48
f 196//48 197//48 190//48
f 192//48 191//48 198//48
f 198//48 199//48 192//48
f 193//48 192//48 199//48
f 199//48 200//48 193//48
f 197//49 196//50 178//51
f 178//51 177//50 197//49
f 199//51 198//50 175//51
f 175//51 173//51 199//51
f 200//49 199//51 173//51
f 173//51 172//50 200//49
f 16//53 202//40 203//39
f 203//39 204//41 16//53
f 204//38 203//38 205//38
f 205//38 195//38 204//38
f 195//42 205//43 206//42
f 206//42 180//44 195//42
f 180//45 206//46 207//45
f 207//45 26//47 180//45
f 26//48 207//48 208//48
f 208//48 15//48 26//48
f 15//49 208//50 202//51
f 202//51 16//50 15//49
f 225//49 216//50 215//51
f 215//51 226//50 225//49
f 227//48 220//48 216//48
f 216//48 225//48 227//48
f 228//45 224//46 220//47
f 220//47 227//47 228//45
f 229//42 230//43 224//42
f 224//42 228//44 229//42
f 226//39 215//40 231//39
f 231//39 232//41 226//39
f 232//38 231//38 230//38
f 230//38 229//38 232//38
usemtl mat2.001
f 27//8 28//4 29//8
f 29//8 30//4 27//8
f 17//44 41//42 45//43
f 45//43 43//42 17//44
f 37//48 18//48 40//48
f 40//48 39//48 37//48
f 41//38 36//38 46//38
f 46//38 45//38 41//38
f 35//50 37//49 39//50
f 39//50 47//51 35//50
f 18//47 17//45 43//46
f 43//46 40//45 18//47
f 36//41 35//53 47//40
f 47//40 46//39 36//41
f 51//54 52//54 53//54
f 53//54 54//55 51//54
f 55//38 64//38 31//38
f 31//38 61//38 55//38
f 62//47 56//45 67//46
f 67//46 60//45 62//47
f 63//50 68//49 59//50
f 59//50 32//51 63//50
f 64//41 63//39 32//40
f 32//40 31//39 64//41
f 56//44 55//42 61//43
f 61//43 67//42 56//44
f 68//48 62//48 60//48
f 60//48 59//48 68//48
f 69//2 52//1 51//2
f 51//2 70//3 71//2
f 71//2 72//2 69//2
f 69//2 51//2 71//2
f 72//56 71//56 65//56
f 65//56 58//56 72//56
f 52//57 69//57 57//57
f 57//57 53//58 52//57
f 70//59 51//60 54//61
f 54//61 66//62 70//59
f 71//63 70//64 66//63
f 66//63 65//65 71//63
f 69//66 72//67 58//68
f 58//68 57//67 69//66
f 77//8 78//4 79//6
f 79//6 80//4 77//8
f 85//9 86//2 8//9
f 8//9 84//2 85//9
f 95//2 96//2 83//2
f 83//2 7//2 95//2
f 97//2 98//2 90//3
f 90//3 99//2 97//2
f 102//69 103//70 104//33
f 104//33 105//36 102//69
f 106//71 107//72 108//31
f 108//31 109//30 106//71
f 114//73 115//74 116//29
f 116//29 117//32 114//73
f 121//75 122//76 120//35
f 120//35 123//34 121//75
f 124//77 125//78 126//23
f 126//23 127//22 124//77
f 131//79 132//80 133//21
f 133//21 130//24 131//79
f 136//2 137//2 138//2
f 138//2 89//2 136//2
f 139//81 131//20 130//20
f 130//20 100//20 139//81
f 140//82 141//83 129//27
f 129//27 135//26 140//82
f 141//84 142//19 119//19
f 119//19 129//19 141//84
f 143//85 144//86 134//25
f 134//25 128//28 143//85
f 145//19 143//19 128//19
f 128//19 118//19 145//19
f 77//87 146//87 97//87
f 97//87 86//87 77//87
f 147//88 28//89 95//88
f 95//88 137//89 147//88
f 146//90 148//91 98//91
f 98//91 97//91 146//90
f 149//92 147//93 137//93
f 137//93 136//94 149//92
f 150//95 151//96 98//97
f 98//97 148//97 150//95
f 85//98 78//99 77//100
f 77//100 86//101 85//98
f 152//102 153//103 149//104
f 149//104 136//105 152//102
f 27//106 96//107 95//108
f 95//108 28//108 27//106
f 142//109 139//110 151//96
f 151//96 150//95 142//109
f 154//111 155//111 78//99
f 78//99 85//98 154//111
f 156//112 145//113 153//103
f 153//103 152//102 156//112
f 157//112 158//112 96//107
f 96//107 27//106 157//112
f 125//113 143//112 145//113
f 145//113 156//112 125//113
f 107//113 102//114 158//112
f 158//112 157//112 107//113
f 141//110 131//109 139//110
f 139//110 142//109 141//110
f 122//110 114//109 155//111
f 155//111 154//111 122//110
f 106//115 115//115 121//115
f 121//115 103//115 106//115
f 140//116 144//116 124//116
f 124//116 132//116 140//116
f 140//117 132//118 131//119
f 131//119 141//118 140//117
f 121//120 115//121 114//120
f 114//120 122//122 121//120
f 124//123 144//124 143//125
f 143//125 125//126 124//123
f 106//127 103//128 102//129
f 102//129 107//130 106//127
f 150//4 148//4 75//4
f 75//4 94//5 150//4
f 98//2 151//3 87//2
f 87//2 90//3 98//2
f 151//131 139//10 100//10
f 100//10 87//11 151//131
f 152//2 136//2 89//2
f 89//2 88//2 152//2
f 146//4 77//8 80//4
f 80//4 76//4 146//4
f 156//11 152//10 88//11
f 88//11 101//11 156//11
f 149//4 153//5 93//4
f 93//4 159//4 149//4
f 142//132 150//14 94//14
f 94//14 119//15 142//132
f 28//4 147//4 160//5
f 160//5 29//8 28//4
f 154//13 85//133 84//13
f 84//13 113//13 154//13
f 86//2 97//2 99//2
f 99//2 8//9 86//2
f 147//4 149//4 159//4
f 159//4 160//5 147//4
f 103//70 121//75 123//34
f 123//34 104//33 103//70
f 78//134 155//135 110//12
f 110//12 79//12 78//134
f 132//80 124//77 127//22
f 127//22 133//21 132//80
f 157//134 27//12 30//12
f 30//12 111//12 157//134
f 148//4 146//4 76//4
f 76//4 75//4 148//4
f 115//74 106//71 109//30
f 109//30 116//29 115//74
f 155//18 114//18 117//18
f 117//18 110//18 155//18
f 96//133 158//13 112//13
f 112//13 83//13 96//133
f 144//86 140//82 135//26
f 135//26 134//25 144//86
f 107//18 157//136 111//18
f 111//18 108//18 107//18
f 153//14 145//132 118//14
f 118//14 93//15 153//14
f 158//16 102//16 105//16
f 105//16 112//16 158//16
f 122//17 154//16 113//17
f 113//17 120//16 122//17
f 125//137 156//20 101//20
f 101//20 126//20 125//137
f 137//2 95//2 7//2
f 7//2 138//2 137//2
f 2//49 14//50 13//51
f 13//51 188//50 2//49
f 1//48 25//48 14//48
f 14//48 2//48 1//48
f 237//45 179//46 25//45
f 25//45 1//47 237//45
f 238//42 194//43 179//42
f 179//42 237//44 238//42
f 239//38 211//38 194//38
f 194//38 238//38 239//38
f 188//39 13//40 211//39
f 211//39 239//41 188//39
usemtl mat3
f 73//138 74//139 75//140
f 75//140 76//140 73//138
f 81//141 82//142 80//143
f 80//143 79//144 81//141
f 91//145 92//145 93//146
f 93//146 94//146 91//145
f 74//139 73//138 161//147
f 82//142 81//141 161//148
f 162//149 92//150 161//151
f 163//152 164//153 29//154
f 29//154 160//155 163//152
f 164//153 165//150 30//156
f 30//156 29//157 164//153
f 162//149 163//158 160//159
f 160//159 159//160 162//149
f 92//150 162//149 159//157
f 159//157 93//156 92//150
f 82//142 73//161 76//162
f 76//162 80//163 82//142
f 74//139 91//164 94//143
f 94//143 75//143 74//139
f 165//165 81//166 79//167
f 79//167 30//167 165//165
f 164//153 163//152 161//168
f 165//150 164//153 161//168
f 81//166 165//165 161//169
f 163//158 162//149 161//151
f 91//164 74//139 161//147
f 73//161 82//142 161//148
f 92//145 91//145 161//170
